<svg width="550" height="236" viewBox="0 0 550 236" fill="none" xmlns="http://www.w3.org/2000/svg">
<path d="M36 60.673C40.7422 60.673 44.6761 62.0696 47.8016 64.8626C50.9272 67.6557 53.5677 71.3082 55.7233 75.8201C57.8788 80.2246 59.6571 85.3273 61.0582 91.1283C62.4593 96.8219 63.8066 102.73 65.0999 108.854C66.3932 114.869 67.6866 120.778 68.9799 126.579C70.381 132.272 72.1054 137.375 74.1532 141.887C76.3087 146.399 78.8415 150.051 81.7515 152.845C84.7693 155.53 88.5954 156.873 93.2298 156.873C93.4453 156.873 93.7148 156.819 94.0381 156.712C94.2537 156.604 94.5231 156.497 94.8465 156.39C95.2776 156.282 95.9242 155.799 96.7864 154.939C97.6487 153.973 98.1876 153.328 98.4031 153.006C98.6187 152.469 99.0498 150.696 99.6964 147.688C100.343 144.68 101.205 140.867 102.283 136.247C103.469 131.628 104.762 126.418 106.163 120.617C107.564 114.816 109.019 108.961 110.528 103.053C112.145 97.0367 113.761 91.2357 115.378 85.6496C116.995 79.956 118.557 74.907 120.066 70.5025C121.575 66.098 122.976 62.6067 124.27 60.0285C125.671 57.3428 126.856 56 127.826 56C129.12 56 130.144 56.2686 130.898 56.8057C131.652 57.3428 132.191 58.0411 132.515 58.9005C132.838 59.7599 133.054 60.7267 133.161 61.801C133.269 62.7678 133.323 63.7347 133.323 64.7015C133.323 66.3129 133 69.1597 132.353 73.2419C131.814 77.3241 131.006 82.1582 129.928 87.7444C128.958 93.2231 127.719 99.239 126.21 105.792C124.809 112.345 123.246 119.005 121.521 125.773C119.797 132.434 117.911 138.879 115.863 145.11C113.815 151.233 111.714 156.712 109.558 161.546C107.51 166.273 105.355 170.086 103.091 172.987C100.936 175.78 98.7803 177.177 96.6248 177.177C93.7148 177.177 90.9126 176.371 88.2181 174.759C85.5237 173.148 82.9909 171.053 80.6198 168.475C78.2487 165.897 75.9854 162.996 73.8299 159.774C71.7821 156.443 69.896 153.113 68.1715 149.783C66.5549 146.453 65.046 143.284 63.6449 140.276C62.2438 137.268 61.1121 134.636 60.2499 132.38C59.0644 129.479 57.6094 125.988 55.8849 121.906C54.2683 117.716 52.5438 113.366 50.7116 108.854C48.9872 104.342 47.2088 99.8298 45.3766 95.3179C43.6522 90.6986 42.0894 86.6164 40.6883 83.0714C39.2872 79.4189 38.1555 76.4109 37.2933 74.0476C36.4311 71.6842 36 70.3951 36 70.1802V60.673Z" fill="#FFDC88"/>
<path d="M212.701 156.39C208.605 159.183 205.049 161.707 202.031 163.963C199.121 166.112 196.265 167.938 193.463 169.442C190.661 170.946 187.643 172.074 184.409 172.826C181.284 173.578 177.404 173.954 172.77 173.954C162.746 173.954 155.31 171.322 150.46 166.058C145.61 160.687 143.185 152.737 143.185 142.209C143.185 138.127 143.723 133.884 144.801 129.479C145.879 125.075 147.442 120.724 149.49 116.427C151.645 112.023 154.178 107.887 157.088 104.019C159.998 100.045 163.285 96.5533 166.95 93.5454C170.614 90.5375 174.494 88.1741 178.589 86.4553C182.793 84.629 187.212 83.7159 191.846 83.7159C199.606 84.4679 205.695 86.4016 210.114 89.5169C214.533 92.5249 217.874 96.4459 220.138 101.28C222.401 106.007 223.964 111.324 224.826 117.233C225.688 123.034 226.335 129.05 226.766 135.28C227.305 141.511 227.952 147.742 228.706 153.973C229.46 160.203 231.023 165.951 233.394 171.214C231.993 174.759 230.646 177.23 229.353 178.627C228.167 180.131 226.82 180.399 225.311 179.433C223.802 178.466 222.024 176.102 219.976 172.342C218.036 168.582 215.611 163.265 212.701 156.39ZM156.926 142.532C156.926 148.655 158.058 153.167 160.321 156.067C162.692 158.86 166.842 160.257 172.77 160.257C177.188 160.257 181.392 159.505 185.379 158.001C189.475 156.39 193.032 154.241 196.049 151.555C199.067 148.762 201.492 145.432 203.324 141.565C205.157 137.698 206.073 133.4 206.073 128.674C206.073 126.74 206.127 124.054 206.234 120.617C206.342 117.072 206.127 113.58 205.588 110.143C205.049 106.705 204.025 103.751 202.516 101.28C201.007 98.7018 198.744 97.4127 195.726 97.4127C190.122 97.4127 184.948 98.863 180.206 101.763C175.464 104.557 171.368 108.155 167.92 112.56C164.471 116.964 161.776 121.852 159.836 127.223C157.896 132.487 156.926 137.59 156.926 142.532Z" fill="#FFDC88"/>
<path d="M243.579 109.498C243.579 108.531 243.633 107.564 243.741 106.598C243.849 105.523 244.064 104.61 244.388 103.858C244.711 102.999 245.196 102.301 245.843 101.763C246.597 101.226 247.621 100.958 248.914 100.958C249.992 100.958 251.178 101.817 252.471 103.536C253.872 105.147 255.273 107.242 256.674 109.82C258.075 112.291 259.423 115.031 260.716 118.039C262.117 121.046 263.303 123.84 264.273 126.418C265.35 128.889 266.212 131.037 266.859 132.863C267.506 134.69 267.883 135.656 267.991 135.764C269.392 132.004 270.955 127.922 272.679 123.517C274.404 119.113 276.505 115.031 278.984 111.271C281.571 107.403 284.589 104.181 288.037 101.602C291.594 99.0241 295.905 97.735 300.971 97.735C303.557 97.735 305.982 98.1647 308.246 99.0241C310.617 99.7761 312.665 100.958 314.389 102.569C316.221 104.073 317.676 105.899 318.754 108.048C319.832 110.196 320.371 112.667 320.371 115.46C320.371 117.824 319.401 119.489 317.461 120.456C315.628 121.422 313.527 121.906 311.156 121.906H309.539L302.587 114.977C302.372 114.977 302.21 114.923 302.102 114.816C301.887 114.816 301.671 114.816 301.456 114.816C301.348 114.708 301.186 114.655 300.971 114.655C297.198 114.655 294.235 115.729 292.079 117.877C290.031 119.918 288.469 122.497 287.391 125.612C286.313 128.62 285.612 131.843 285.289 135.28C285.074 138.611 284.966 141.672 284.966 144.465C284.966 146.614 285.181 148.816 285.612 151.072C286.044 153.221 286.529 155.369 287.067 157.518C287.606 159.559 288.091 161.707 288.522 163.963C288.954 166.112 289.169 168.368 289.169 170.731C289.169 175.243 286.744 177.499 281.894 177.499C279.2 177.499 276.397 176.102 273.487 173.309C270.577 170.409 267.667 166.756 264.758 162.352C261.955 157.947 259.261 153.113 256.674 147.849C254.088 142.478 251.824 137.268 249.884 132.219C247.944 127.17 246.381 122.604 245.196 118.522C244.118 114.44 243.579 111.432 243.579 109.498Z" fill="#FFDC88"/>
<path d="M326.191 111.432C326.191 110.787 326.191 109.659 326.191 108.048C326.298 106.329 326.352 104.557 326.352 102.73C326.352 100.904 326.352 99.239 326.352 97.735C326.46 96.1236 326.514 94.9957 326.514 94.3511C327.268 93.062 328.131 91.8266 329.101 90.6449C330.178 89.3558 331.256 88.4964 332.334 88.0667C333.519 87.5295 334.759 87.4221 336.052 87.7444C337.453 88.0667 338.854 89.1409 340.256 90.9672V92.2563V94.3511C340.148 94.8882 339.932 96.1773 339.609 98.2184C339.286 100.152 338.908 102.301 338.477 104.664C338.046 107.027 337.615 109.23 337.184 111.271C336.861 113.204 336.699 114.44 336.699 114.977C336.699 117.018 336.914 119.596 337.346 122.712C337.777 125.719 338.369 128.889 339.124 132.219C339.986 135.549 341.01 138.879 342.196 142.209C343.489 145.54 344.998 148.548 346.722 151.233C348.447 153.811 350.333 155.96 352.381 157.679C354.536 159.398 357.015 160.257 359.817 160.257C363.266 160.257 366.284 159.344 368.87 157.518C371.565 155.691 373.882 153.328 375.822 150.427C377.762 147.527 379.325 144.25 380.51 140.598C381.804 136.946 382.828 133.293 383.582 129.641C384.337 125.881 384.875 122.282 385.199 118.844C385.522 115.407 385.684 112.399 385.684 109.82C385.684 107.242 385.468 104.825 385.037 102.569C384.714 100.206 384.283 97.8962 383.744 95.6402C383.205 93.3843 382.72 91.182 382.289 89.0335C381.965 86.7776 381.804 84.5216 381.804 82.2657C381.804 80.2246 382.504 78.7743 383.905 77.9149C385.414 77.0555 387.085 76.6258 388.917 76.6258C391.18 76.6258 393.013 77.3241 394.414 78.7206C395.815 80.0097 396.893 81.6748 397.647 83.7159C398.509 85.757 399.048 88.1204 399.264 90.806C399.587 93.3843 399.749 95.9625 399.749 98.5407C399.749 101.119 399.695 103.59 399.587 105.953C399.479 108.209 399.425 110.035 399.425 111.432C399.425 115.084 399.156 119.22 398.617 123.84C398.078 128.459 397.108 133.239 395.707 138.181C394.414 143.015 392.743 147.796 390.695 152.522C388.755 157.249 386.33 161.492 383.42 165.252C380.618 168.905 377.331 171.859 373.559 174.115C369.894 176.371 365.745 177.499 361.11 177.499C356.261 177.499 352.003 176.371 348.339 174.115C344.674 171.752 341.549 168.69 338.962 164.93C336.483 161.063 334.382 156.712 332.657 151.878C330.933 147.044 329.586 142.209 328.616 137.375C327.753 132.541 327.107 127.868 326.676 123.356C326.352 118.737 326.191 114.762 326.191 111.432Z" fill="#FFDC88"/>
<path d="M409.287 122.873C409.287 120.08 409.988 118.092 411.389 116.911C412.79 115.621 415.053 114.977 418.179 114.977H419.795C420.119 116.696 420.496 118.683 420.927 120.939C421.358 123.195 422.005 125.505 422.867 127.868C423.729 130.231 424.753 132.434 425.939 134.475C427.124 136.408 428.579 137.966 430.304 139.148C430.411 135.388 431.327 131.789 433.052 128.351C434.884 124.806 437.094 121.691 439.68 119.005C442.375 116.212 445.285 113.903 448.41 112.076C451.643 110.143 454.823 108.854 457.948 108.209H461.505C466.678 108.209 471.097 109.391 474.762 111.754C478.426 114.01 481.444 117.018 483.815 120.778C486.294 124.43 488.18 128.62 489.473 133.347C490.767 138.073 491.737 142.908 492.383 147.849C493.138 152.683 493.569 157.41 493.677 162.029C493.892 166.541 494 170.409 494 173.632H482.198C481.552 167.186 480.743 161.009 479.773 155.101C479.45 152.737 479.019 150.266 478.48 147.688C477.941 145.002 477.348 142.532 476.702 140.276C476.055 137.912 475.355 135.764 474.6 133.83C473.846 131.789 472.983 130.07 472.013 128.674C471.582 128.244 470.99 127.653 470.235 126.901C469.588 126.149 468.888 125.397 468.133 124.645C467.379 123.893 466.678 123.249 466.032 122.712C465.385 122.174 465.008 121.906 464.9 121.906C461.667 121.046 458.865 121.691 456.493 123.84C454.122 125.881 452.021 128.674 450.188 132.219C448.356 135.764 446.847 139.792 445.662 144.304C444.584 148.816 443.668 153.167 442.914 157.356C442.159 161.439 441.62 165.037 441.297 168.153C440.974 171.161 440.758 172.987 440.65 173.632C437.956 175.565 435.423 176.156 433.052 175.404C430.681 174.545 428.417 172.826 426.262 170.248C424.214 167.669 422.328 164.447 420.604 160.579C418.987 156.712 417.478 152.63 416.077 148.333C414.676 143.928 413.383 139.524 412.197 135.119C411.119 130.715 410.149 126.633 409.287 122.873Z" fill="#FFDC88"/>
</svg>
